<svg width="38" height="31" viewBox="0 0 38 31" fill="none" xmlns="http://www.w3.org/2000/svg">
<path d="M9.0578 17.4548L13.1354 28.7408C13.1354 28.7408 13.6451 29.7968 14.191 29.7968C14.7369 29.7968 22.8561 21.3502 22.8561 21.3502L31.8851 3.91106L9.20325 14.5415L9.0578 17.4548Z" fill="#C8DAEA"/>
<path d="M14.4638 20.3491L13.6811 28.668C13.6811 28.668 13.3533 31.217 15.9018 28.668C18.4502 26.1191 20.8895 24.1535 20.8895 24.1535" fill="#A9C6D8"/>
<path d="M9.13131 17.8575L0.743687 15.1246C0.743687 15.1246 -0.258768 14.718 0.06405 13.7957C0.130455 13.6055 0.264491 13.4438 0.665498 13.1656C2.52397 11.8702 35.0643 0.174353 35.0643 0.174353C35.0643 0.174353 35.9831 -0.135209 36.5249 0.0706338C36.659 0.112121 36.7796 0.188591 36.8745 0.291942C36.9694 0.395415 37.035 0.522088 37.0649 0.659193C37.1234 0.901491 37.1479 1.15066 37.1375 1.39959C37.135 1.61501 37.1089 1.81459 37.0892 2.12759C36.8909 5.32532 30.9602 29.1908 30.9602 29.1908C30.9602 29.1908 30.6053 30.5872 29.3339 30.6351C29.0214 30.6452 28.7103 30.5923 28.4186 30.4795C28.1271 30.3667 27.8612 30.1964 27.637 29.9787C25.1421 27.8326 16.519 22.0376 14.6137 20.763C14.5706 20.7338 14.5345 20.6956 14.5075 20.6512C14.4805 20.6066 14.4633 20.5569 14.4573 20.5053C14.4307 20.371 14.5767 20.2045 14.5767 20.2045C14.5767 20.2045 29.5917 6.85816 29.9912 5.45703C30.0222 5.34852 29.9053 5.29501 29.7483 5.34251C28.7511 5.70939 11.4632 16.6268 9.55514 17.8318C9.41779 17.8732 9.27271 17.8821 9.13131 17.8575Z" fill="white"/>
</svg>
